# xmcd
#
# Track frame offsets: 
#        150
#        10452
#        24664
#        36017
#        49553
#        63744
#        74321
#        86247
#        99430
#        112061
#        128014
#        140640
#        152091
#        162563
#        173911
#        184969
#        196426
#        209095
#        219386
#        233158
#        245856
#        259718
#        272447
#        281418
#        295631
#
# Disc length: 4113 seconds
#
# Revision: 3
# Processed by: cddbd v1.5.2PL0 Copyright (c) Steve Scherf et al.
# Submitted via: ExactAudioCopy v1.0b3
#
DISCID=81100f19
DTITLE=Charles, Ray - The Genius
DYEAR=2003
DGENRE=R&B
TTITLE0=Sittin' On Top Of The World
TTITLE1=Kiss Me Baby
TTITLE2=Confession Blues
TTITLE3=Baby Let Me Hold Your Hand
TTITLE4=Someday
TTITLE5=The Ego Song
TTITLE6=I Love You, I Love You (I'll Never Let You Go)
TTITLE7=Alone In The City
TTITLE8=Can Anyone Ask For More?
TTITLE9=Let Me Hear You Call My Name
TTITLE10=You'll Never Miss The Water (Till the Well's Gone Dry)
TTITLE11=What Have I Done?
TTITLE12=I Wonder Who's Kissing Her Now
TTITLE13=Back Home (Instrumental)
TTITLE14=I'll Do Anything But Work
TTITLE15=Guitar Blues (Instrumental)
TTITLE16=Blues Before Sunrise
TTITLE17=Ain't That Fine
TTITLE18=Misery In My Heart
TTITLE19=Why Did You Go?
TTITLE20=Late In The Evening Blues
TTITLE21=Lonely Boy
TTITLE22=All To Myself
TTITLE23=Walkin' And Talkin'
TTITLE24=Don't Put All Your Dreams In One Basket
EXTD=
EXTT0=
EXTT1=
EXTT2=
EXTT3=
EXTT4=
EXTT5=
EXTT6=
EXTT7=
EXTT8=
EXTT9=
EXTT10=
EXTT11=
EXTT12=
EXTT13=
EXTT14=
EXTT15=
EXTT16=
EXTT17=
EXTT18=
EXTT19=
EXTT20=
EXTT21=
EXTT22=
EXTT23=
EXTT24=
PLAYORDER=
